{"title":"iZombie S02E09 Cape Town 1080p HDTV X264-DIMENSION [rartv]","uid":12965285,"size":2492726851,"categoryP":"video","categoryS":"hd___tv_shows","magnet":"?xt=urn:btih:1b24a0dc2a2333fa7d8461e17cff3064749b06f3&amp;dn=iZombie+S02E09+Cape+Town+1080p+HDTV+X264-DIMENSION+%5Brartv%5D&amp;tr=udp%3A%2F%2Ftracker.leechers-paradise.org%3A6969&amp;tr=udp%3A%2F%2Fzer0day.ch%3A1337&amp;tr=udp%3A%2F%2Fopen.demonii.com%3A1337&amp;tr=udp%3A%2F%2Ftracker.coppersurfer.tk%3A6969&amp;tr=udp%3A%2F%2Fexodus.desync.com%3A6969","seeders":0,"leechers":1,"uploader":"cheerfulcaca","files":3,"time":1449884063,"description":"***FALL FINALE***\r\n\r\n\r\nSEASON 2, EPISODE 9 &quot;CAPE TOWN&quot; SYNOPSIS:\r\n\r\nMr. Boss is in the picture as Liv gets super-hero brains. Major gets some real insight into zombie functioning. Ravi gets more desperate to find a cure for zombies. \r\n\r\n\r\nSERIES INFO:\r\n\r\n8/10·IMDb\r\n8.7/10·TV.com\r\n92%·Rotten Tomatoes\r\n\r\nWhen over-achieving medical resident Liv Moore attends a party that turns into a zombie feeding frenzy, she ends up joining the ranks of the living dead. Determined to pass as human despite her pale appearance and newly listless demeanor, Liv forms a plan to resist her drive to consume fresh human brains by taking a job at a coroner's office, where she can secretly snack on the brains of corpses delivered there. Soon discovering that she absorbs the memories of those she feeds on, she finds new purpose by posing as a psychic and working with a detective to help solve their murders.\r\n\r\n\r\nMEDIA INFO:\r\n\r\nVideo:\r\n\r\nID : 1\r\nFormat : AVC\r\nFormat/Info : Advanced Video Codec\r\nFormat profile :   \r\nFormat settings, CABAC : Yes\r\nFormat settings, ReFrames : 4 frames\r\nCodec ID : V_MPEG4/ISO/AVC\r\nDuration : 42mn 0s\r\nBit rate : 7 371 Kbps\r\nWidth : 1 920 pixels\r\nHeight : 1 068 pixels\r\nDisplay aspect ratio : 16:9\r\nFrame rate mode : Constant\r\nFrame rate : 23.976 fps\r\nColor space : YUV\r\nChroma subsampling : 4:2:0\r\nBit depth : 8 bits\r\nScan type : Progressive\r\nBits/(Pixel*Frame) : 0.150\r\nStream size : 2.16 GiB (93%)\r\nWriting library : x264 core 148 r2638 7599210\r\nEncoding settings : cabac=1 / ref=4 / deblock=1:-3:-3 / analyse=0x3:0x133 / me=umh / subme=11 / psy=1 / psy_rd=1.00:0.00 / mixed_ref=1 / me_range=32 / chroma_me=1 / trellis=2 / 8x8dct=1 / cqm=0 / deadzone=21,11 / fast_pskip=0 / chroma_qp_offset=-2 / threads=20 / lookahead_threads=2 / sliced_threads=0 / nr=0 / decimate=1 / interlaced=0 / bluray_compat=0 / constrained_intra=0 / bframes=5 / b_pyramid=2 / b_adapt=2 / b_bias=0 / direct=3 / weightb=1 / open_gop=0 / weightp=2 / keyint=250 / keyint_min=23 / scenecut=40 / intra_refresh=0 / rc_lookahead=60 / rc=crf / mbtree=1 / crf=17.0 / qcomp=0.60 / qpmin=0 / qpmax=69 / qpstep=4 / ip_ratio=1.40 / aq=1:1.00\r\nLanguage : English\r\nDefault : Yes\r\nForced : No\r\nColor range : Limited\r\nMatrix coefficients : BT.709\r\nDURATION : 00:42:00.310000000\r\nNUMBER_OF_FRAMES : 60427\r\nNUMBER_OF_BYTES : 2371156957\r\n_STATISTICS_WRITING_APP : mkvmerge v8.4.0 ('A better way to fly') 64bit\r\n_STATISTICS_WRITING_DATE_UTC : 2015-12-08 21:38:46\r\n_STATISTICS_TAGS : BPS DURATION NUMBER_OF_FRAMES NUMBER_OF_BYTES\r\n\r\nAudio:\r\n\r\nID : 2\r\nFormat : AC-3\r\nFormat/Info : Audio Coding 3\r\nMode extension : CM (complete main)\r\nFormat settings, Endianness : Big\r\nCodec ID : A_AC3\r\nDuration : 42mn 0s\r\nBit rate mode : Constant\r\nBit rate : 384 Kbps\r\nChannel(s) : 6 channels\r\nChannel positions : Front: L C R, Side: L R, LFE\r\nSampling rate : 48.0 KHz\r\nCompression mode : Lossy\r\nStream size : 115 MiB (5%)\r\nDefault : Yes\r\nForced : No\r\n\r\n \nhttps://rarbg.to","torrent":{"xt":"urn:btih:1b24a0dc2a2333fa7d8461e17cff3064749b06f3","amp;dn":"iZombie+S02E09+Cape+Town+1080p+HDTV+X264-DIMENSION+%5Brartv%5D","amp;tr":["udp%3A%2F%2Ftracker.leechers-paradise.org%3A6969","udp%3A%2F%2Fzer0day.ch%3A1337","udp%3A%2F%2Fopen.demonii.com%3A1337","udp%3A%2F%2Ftracker.coppersurfer.tk%3A6969","udp%3A%2F%2Fexodus.desync.com%3A6969"],"infoHash":"1b24a0dc2a2333fa7d8461e17cff3064749b06f3","infoHashBuffer":{"type":"Buffer","data":[27,36,160,220,42,35,51,250,125,132,97,225,124,255,48,100,116,155,6,243]},"announce":[],"urlList":[]}}